<?xml version="1.0" encoding="UTF-8" standalone="no"?>
<!-- Created with Inkscape (http://www.inkscape.org/) -->

<svg
  xmlns:dc="http://purl.org/dc/elements/1.1/"
  xmlns:cc="http://creativecommons.org/ns#"
  xmlns:rdf="http://www.w3.org/1999/02/22-rdf-syntax-ns#"
  xmlns:svg="http://www.w3.org/2000/svg"
  xmlns="http://www.w3.org/2000/svg"
  xmlns:sodipodi="http://sodipodi.sourceforge.net/DTD/sodipodi-0.dtd"
  xmlns:inkscape="http://www.inkscape.org/namespaces/inkscape"
  width="90mm"
  height="90mm"
  viewBox="0 0 318.89764 318.89764"
  id="svg2"
  version="1.1"
  inkscape:version="0.91 r13725"
  sodipodi:docname="FMI++.svg"
  inkscape:export-filename="C:\Users\WidlE\Documents\Logos\fmipp.png"
  inkscape:export-xdpi="564.09167"
  inkscape:export-ydpi="564.09167">
 <defs
   id="defs4" />
 <sodipodi:namedview
   id="base"
   pagecolor="#ffffff"
   bordercolor="#666666"
   borderopacity="1.0"
   inkscape:pageopacity="0.0"
   inkscape:pageshadow="2"
   inkscape:zoom="1.4142136"
   inkscape:cx="77.205423"
   inkscape:cy="199.11323"
   inkscape:document-units="px"
   inkscape:current-layer="layer1"
   showgrid="false"
   fit-margin-top="2"
   fit-margin-left="2"
   fit-margin-right="2"
   fit-margin-bottom="2"
   inkscape:window-width="1920"
   inkscape:window-height="1018"
   inkscape:window-x="-8"
   inkscape:window-y="-8"
   inkscape:window-maximized="1" />
 <metadata
   id="metadata7">
  <rdf:RDF>
   <cc:Work
     rdf:about="">
    <dc:format>image/svg+xml</dc:format>
    <dc:type
      rdf:resource="http://purl.org/dc/dcmitype/StillImage" />
    <dc:title></dc:title>
   </cc:Work>
  </rdf:RDF>
 </metadata>
 <g
   inkscape:label="Layer 1"
   inkscape:groupmode="layer"
   id="layer1"
   transform="translate(-157.64069,-145.02437)">
  <rect
    style="opacity:1;fill:#790b1a;fill-opacity:1;stroke:none;stroke-width:0.99999994;stroke-linecap:round;stroke-linejoin:miter;stroke-miterlimit:4;stroke-dasharray:7.99999952, 7.99999952;stroke-dashoffset:3.79999971;stroke-opacity:1"
    id="rect4177"
    width="318.89764"
    height="177.16536"
    x="157.64069"
    y="286.75665" />
  <rect
    y="145.02437"
    x="157.64069"
    height="141.73228"
    width="318.89764"
    id="rect4164"
    style="opacity:1;fill:#ffffff;fill-opacity:1;stroke:none;stroke-width:0.99999994;stroke-linecap:round;stroke-linejoin:miter;stroke-miterlimit:4;stroke-dasharray:7.99999952, 7.99999952;stroke-dashoffset:3.79999971;stroke-opacity:1" />
  <g
    id="g4178"
    transform="matrix(1,0,0,0.96621822,3.0566407e-6,5.4976719)">
   <path
     d="m 175.35722,264.0897 c 0,7.86267 4.27153,8.39881 9.07706,8.39881 l 8.00914,0 c 4.80553,0 8.18714,-1.60832 8.18714,-8.22012 l 0,-38.61715 42.35961,0 c 6.76327,0 8.3651,-3.73471 8.3651,-9.2743 0,-6.96915 -3.91559,-8.73716 -8.18713,-8.73716 l -42.53758,0 0,-25.60394 50.90268,0 c 7.6532,0 8.00915,-5.49236 8.00915,-8.53017 0,-5.53968 0,-10.49662 -8.54306,-10.49662 l -66.92107,0 c -7.11922,0 -8.72104,2.85913 -8.72104,8.75616 l 0,92.32465 z"
     style="font-style:normal;font-variant:normal;font-weight:bold;font-stretch:normal;font-size:22.5px;line-height:125%;font-family:'CMU Sans Serif';-inkscape-font-specification:'CMU Sans Serif, Bold';text-align:start;letter-spacing:0px;word-spacing:0px;writing-mode:lr-tb;text-anchor:start;fill:#7c8388;fill-opacity:1;stroke:none;stroke-width:1px;stroke-linecap:butt;stroke-linejoin:miter;stroke-opacity:1"
     id="path3341"
     inkscape:connector-curvature="0"
     sodipodi:nodetypes="cssscssscccsssscc" />
   <path
     d="m 273.22337,264.00048 c 0,3.57396 0.17811,8.75617 8.1872,8.75617 l 4.9835,0 c 4.62747,0 8.72103,-0.89351 8.72103,-8.39881 l 0,-77.97956 27.06402,59.3913 c 10.80869,23.43436 9.2442,23.05574 19.92308,23.05574 l 2.66971,0 c 5.69546,0 7.93308,0.64292 13.34867,-9.64969 l 34.52836,-72.79735 c 0.1782,1.78694 0.1782,2.09501 0.1782,3.70326 l 0,73.38281 c 0,2.68053 -0.35565,9.2923 7.83118,9.2923 l 5.87342,0 c 6.76328,0 8.18713,-3.21658 8.18713,-8.75617 l 0,-92.86078 c 0,-3.39527 -0.53384,-8.39879 -8.3651,-8.39879 l -15.30642,0 c -8.54307,0 -10.32293,3.93133 -12.6367,9.64968 -0.88986,2.14439 0,0 -34.8843,73.91885 -37.19816,-78.56501 -35.77431,-76.24193 -37.19816,-78.56501 -3.02566,-4.82476 -7.47524,-5.00352 -10.67887,-5.00352 l -13.88258,0 c -6.76327,0 -8.54314,3.21657 -8.54314,8.22011 l 0,93.03946 z"
     style="font-style:normal;font-variant:normal;font-weight:bold;font-stretch:normal;font-size:22.5px;line-height:125%;font-family:'CMU Sans Serif';-inkscape-font-specification:'CMU Sans Serif, Bold';text-align:start;letter-spacing:0px;word-spacing:0px;writing-mode:lr-tb;text-anchor:start;fill:#7c8388;fill-opacity:1;stroke:none;stroke-width:1px;stroke-linecap:butt;stroke-linejoin:miter;stroke-opacity:1"
     id="path3343"
     inkscape:connector-curvature="0"
     sodipodi:nodetypes="csssccssccsssssssscccssscc" />
   <path
     d="m 433.54838,264.17917 c 0,8.22003 4.62755,8.57748 9.25503,8.57748 l 7.47524,0 c 8.00915,0 8.54314,-4.11009 8.54314,-9.2923 l 0,-92.32465 c 0,-7.86266 -4.44958,-8.39879 -9.2551,-8.39879 l -7.47516,0 c -6.76336,0 -8.54315,2.85921 -8.54315,8.57747 z"
     style="font-style:normal;font-variant:normal;font-weight:bold;font-stretch:normal;font-size:22.5px;line-height:125%;font-family:'CMU Sans Serif';-inkscape-font-specification:'CMU Sans Serif, Bold';text-align:start;letter-spacing:0px;word-spacing:0px;writing-mode:lr-tb;text-anchor:start;fill:#7c8388;fill-opacity:1;stroke:none;stroke-width:1px;stroke-linecap:butt;stroke-linejoin:miter;stroke-opacity:1"
     id="path3345"
     inkscape:connector-curvature="0"
     sodipodi:nodetypes="sssssssss" />
  </g>
  <path
    inkscape:connector-curvature="0"
    id="path4155"
    style="font-style:normal;font-variant:normal;font-weight:normal;font-stretch:normal;font-size:medium;line-height:125%;font-family:Calibri;-inkscape-font-specification:Calibri;letter-spacing:0px;word-spacing:0px;fill:#ffffff;fill-opacity:1;stroke:none;stroke-width:1px;stroke-linecap:butt;stroke-linejoin:miter;stroke-opacity:1"
    d="m 307.9076,375.49043 q 0,2.87091 -0.45332,4.98633 -0.4533,1.9643 -1.20881,3.32421 -0.75548,1.35989 -1.81319,1.96429 -1.0577,0.60442 -2.26651,0.60442 l -49.56097,0 0,55.00058 q 0,1.20881 -0.60441,2.1154 -0.6044,0.75551 -1.96431,1.35991 -1.20879,0.6044 -3.32421,1.0577 -2.1154,0.3022 -5.28851,0.3022 -3.02201,0 -5.28853,-0.3022 -2.11541,-0.4533 -3.47531,-1.0577 -1.2088,-0.6044 -1.8132,-1.35991 -0.60441,-0.90659 -0.60441,-2.1154 l 0,-55.00058 -49.56096,0 q -1.35991,0 -2.41761,-0.60442 -0.90662,-0.6044 -1.66211,-1.96429 -0.7555,-1.35991 -1.20881,-3.32421 -0.4533,-2.11542 -0.4533,-4.98633 0,-2.71981 0.4533,-4.6841 0.45331,-2.11542 1.20881,-3.47532 0.75549,-1.35991 1.66211,-1.96432 1.0577,-0.6044 2.2665,-0.6044 l 49.71207,0 0,-55.00059 q 0,-1.2088 0.60441,-2.11542 0.6044,-1.0577 1.8132,-1.6621 1.3599,-0.7555 3.47531,-1.0577 2.26652,-0.45329 5.28853,-0.45329 3.17311,0 5.28851,0.45329 2.11542,0.3022 3.32421,1.0577 1.35991,0.6044 1.96431,1.6621 0.60441,0.90662 0.60441,2.11542 l 0,55.00059 49.71208,0 q 1.20879,0 2.1154,0.6044 1.05771,0.60441 1.81319,1.96432 0.90662,1.3599 1.20881,3.47532 0.45332,1.96429 0.45332,4.6841 z" />
  <path
    inkscape:connector-curvature="0"
    id="path4157"
    style="font-style:normal;font-variant:normal;font-weight:normal;font-stretch:normal;font-size:medium;line-height:125%;font-family:Calibri;-inkscape-font-specification:Calibri;letter-spacing:0px;word-spacing:0px;fill:#ffffff;fill-opacity:1;stroke:none;stroke-width:1px;stroke-linecap:butt;stroke-linejoin:miter;stroke-opacity:1"
    d="m 459.23869,375.49043 q 0,2.87091 -0.45329,4.98633 -0.45332,1.9643 -1.20882,3.32421 -0.7555,1.35989 -1.81321,1.96429 -1.05771,0.60442 -2.2665,0.60442 l -49.56098,0 0,55.00058 q 0,1.20881 -0.6044,2.1154 -0.6044,0.75551 -1.9643,1.35991 -1.20881,0.6044 -3.32423,1.0577 -2.1154,0.3022 -5.2885,0.3022 -3.02202,0 -5.28853,-0.3022 -2.1154,-0.4533 -3.47531,-1.0577 -1.20879,-0.6044 -1.81321,-1.35991 -0.6044,-0.90659 -0.6044,-2.1154 l 0,-55.00058 -49.56096,0 q -1.35992,0 -2.41761,-0.60442 -0.90661,-0.6044 -1.66212,-1.96429 -0.75548,-1.35991 -1.2088,-3.32421 -0.4533,-2.11542 -0.4533,-4.98633 0,-2.71981 0.4533,-4.6841 0.45332,-2.11542 1.2088,-3.47532 0.75551,-1.35991 1.66212,-1.96432 1.05769,-0.6044 2.2665,-0.6044 l 49.71207,0 0,-55.00059 q 0,-1.2088 0.6044,-2.11542 0.60442,-1.0577 1.81321,-1.6621 1.35991,-0.7555 3.47531,-1.0577 2.26651,-0.45329 5.28853,-0.45329 3.1731,0 5.2885,0.45329 2.11542,0.3022 3.32423,1.0577 1.3599,0.6044 1.9643,1.6621 0.6044,0.90662 0.6044,2.11542 l 0,55.00059 49.71207,0 q 1.20881,0 2.11541,0.6044 1.05771,0.60441 1.81321,1.96432 0.9066,1.3599 1.20882,3.47532 0.45329,1.96429 0.45329,4.6841 z" />
 </g>
</svg>
