<?xml version="1.0" encoding="UTF-8" standalone="no"?>
<svg
   xmlns:dc="http://purl.org/dc/elements/1.1/"
   xmlns:cc="http://creativecommons.org/ns#"
   xmlns:rdf="http://www.w3.org/1999/02/22-rdf-syntax-ns#"
   xmlns:svg="http://www.w3.org/2000/svg"
   xmlns="http://www.w3.org/2000/svg"
   xmlns:sodipodi="http://sodipodi.sourceforge.net/DTD/sodipodi-0.dtd"
   xmlns:inkscape="http://www.inkscape.org/namespaces/inkscape"
   width="655.5484"
   height="298.32629"
   id="svg2"
   version="1.1"
   inkscape:version="1.0.2 (e86c870879, 2021-01-15, custom)"
   sodipodi:docname="fmuexport_schematics.svg">
  <defs
     id="defs4">
    <marker
       inkscape:stockid="Arrow2Mend"
       orient="auto"
       refY="0"
       refX="0"
       id="Arrow2Mend"
       style="overflow:visible">
      <path
         id="path3954"
         style="font-size:12px;fill-rule:evenodd;stroke-width:0.625;stroke-linejoin:round"
         d="M 8.7185878,4.0337352 -2.2072895,0.01601326 8.7185884,-4.0017078 c -1.7454984,2.3720609 -1.7354408,5.6174519 -6e-7,8.035443 z"
         transform="scale(-0.6,-0.6)"
         inkscape:connector-curvature="0" />
    </marker>
    <marker
       inkscape:stockid="Arrow1Lend"
       orient="auto"
       refY="0"
       refX="0"
       id="Arrow1Lend"
       style="overflow:visible">
      <path
         id="path3930"
         d="M 0,0 5,-5 -12.5,0 5,5 0,0 z"
         style="fill-rule:evenodd;stroke:#000000;stroke-width:1pt;marker-start:none"
         transform="matrix(-0.8,0,0,-0.8,-10,0)"
         inkscape:connector-curvature="0" />
    </marker>
    <marker
       inkscape:stockid="Arrow2Lend"
       orient="auto"
       refY="0"
       refX="0"
       id="Arrow2Lend"
       style="overflow:visible">
      <path
         id="path3948"
         style="font-size:12px;fill-rule:evenodd;stroke-width:0.625;stroke-linejoin:round"
         d="M 8.7185878,4.0337352 -2.2072895,0.01601326 8.7185884,-4.0017078 c -1.7454984,2.3720609 -1.7354408,5.6174519 -6e-7,8.035443 z"
         transform="matrix(-1.1,0,0,-1.1,-1.1,0)"
         inkscape:connector-curvature="0" />
    </marker>
    <marker
       inkscape:stockid="Arrow2Lend"
       orient="auto"
       refY="0"
       refX="0"
       id="Arrow2Lend-6"
       style="overflow:visible">
      <path
         inkscape:connector-curvature="0"
         id="path3948-8"
         style="font-size:12px;fill-rule:evenodd;stroke-width:0.625;stroke-linejoin:round"
         d="M 8.7185878,4.0337352 -2.2072895,0.01601326 8.7185884,-4.0017078 c -1.7454984,2.3720609 -1.7354408,5.6174519 -6e-7,8.035443 z"
         transform="matrix(-1.1,0,0,-1.1,-1.1,0)" />
    </marker>
    <marker
       inkscape:stockid="Arrow2Mend"
       orient="auto"
       refY="0"
       refX="0"
       id="Arrow2Mend-4"
       style="overflow:visible">
      <path
         inkscape:connector-curvature="0"
         id="path3954-9"
         style="font-size:12px;fill-rule:evenodd;stroke-width:0.625;stroke-linejoin:round"
         d="M 8.7185878,4.0337352 -2.2072895,0.01601326 8.7185884,-4.0017078 c -1.7454984,2.3720609 -1.7354408,5.6174519 -6e-7,8.035443 z"
         transform="scale(-0.6,-0.6)" />
    </marker>
    <marker
       inkscape:stockid="Arrow2Mend"
       orient="auto"
       refY="0"
       refX="0"
       id="marker7486"
       style="overflow:visible">
      <path
         inkscape:connector-curvature="0"
         id="path7488"
         style="font-size:12px;fill-rule:evenodd;stroke-width:0.625;stroke-linejoin:round"
         d="M 8.7185878,4.0337352 -2.2072895,0.01601326 8.7185884,-4.0017078 c -1.7454984,2.3720609 -1.7354408,5.6174519 -6e-7,8.035443 z"
         transform="scale(-0.6,-0.6)" />
    </marker>
    <marker
       inkscape:stockid="Arrow2Mend"
       orient="auto"
       refY="0"
       refX="0"
       id="marker7490"
       style="overflow:visible">
      <path
         inkscape:connector-curvature="0"
         id="path7492"
         style="font-size:12px;fill-rule:evenodd;stroke-width:0.625;stroke-linejoin:round"
         d="M 8.7185878,4.0337352 -2.2072895,0.01601326 8.7185884,-4.0017078 c -1.7454984,2.3720609 -1.7354408,5.6174519 -6e-7,8.035443 z"
         transform="scale(-0.6,-0.6)" />
    </marker>
    <marker
       inkscape:stockid="Arrow2Mend"
       orient="auto"
       refY="0"
       refX="0"
       id="marker7494"
       style="overflow:visible">
      <path
         inkscape:connector-curvature="0"
         id="path7496"
         style="font-size:12px;fill-rule:evenodd;stroke-width:0.625;stroke-linejoin:round"
         d="M 8.7185878,4.0337352 -2.2072895,0.01601326 8.7185884,-4.0017078 c -1.7454984,2.3720609 -1.7354408,5.6174519 -6e-7,8.035443 z"
         transform="scale(-0.6,-0.6)" />
    </marker>
    <marker
       inkscape:stockid="Arrow2Mend"
       orient="auto"
       refY="0"
       refX="0"
       id="marker7498"
       style="overflow:visible">
      <path
         inkscape:connector-curvature="0"
         id="path7500"
         style="font-size:12px;fill-rule:evenodd;stroke-width:0.625;stroke-linejoin:round"
         d="M 8.7185878,4.0337352 -2.2072895,0.01601326 8.7185884,-4.0017078 c -1.7454984,2.3720609 -1.7354408,5.6174519 -6e-7,8.035443 z"
         transform="scale(-0.6,-0.6)" />
    </marker>
  </defs>
  <sodipodi:namedview
     id="base"
     pagecolor="#ffffff"
     bordercolor="#666666"
     borderopacity="1.0"
     inkscape:pageopacity="0.0"
     inkscape:pageshadow="2"
     inkscape:zoom="1.0885813"
     inkscape:cx="268.73529"
     inkscape:cy="200.88232"
     inkscape:document-units="px"
     inkscape:current-layer="layer1"
     showgrid="false"
     inkscape:window-width="1366"
     inkscape:window-height="705"
     inkscape:window-x="-8"
     inkscape:window-y="-8"
     inkscape:window-maximized="1"
     fit-margin-top="2"
     fit-margin-left="2"
     fit-margin-right="2"
     fit-margin-bottom="2"
     inkscape:document-rotation="0" />
  <metadata
     id="metadata7">
    <rdf:RDF>
      <cc:Work
         rdf:about="">
        <dc:format>image/svg+xml</dc:format>
        <dc:type
           rdf:resource="http://purl.org/dc/dcmitype/StillImage" />
        <dc:title></dc:title>
      </cc:Work>
    </rdf:RDF>
  </metadata>
  <g
     inkscape:label="Layer 1"
     inkscape:groupmode="layer"
     id="layer1"
     transform="translate(-2.2257959,-747.09889)">
    <g
       id="g3878"
       transform="matrix(1,0,0,0.61870891,-10.857141,48.865666)" />
    <rect
       ry="0"
       y="759.33557"
       x="7.6649818"
       height="184.83705"
       width="235.59621"
       id="rect3168"
       style="fill:#b5b5b5;fill-opacity:1;stroke:none;stroke-width:1.94503" />
    <rect
       style="fill:#ffffff;fill-opacity:1;stroke:#000000;stroke-width:1;stroke-miterlimit:4;stroke-opacity:1;stroke-dasharray:none"
       id="rect3170"
       width="198.77531"
       height="182.15921"
       x="40.785965"
       y="758.17615"
       ry="0" />
    <rect
       ry="0"
       y="758.17615"
       x="5.6452188"
       height="182.15921"
       width="36.140755"
       id="rect3174"
       style="fill:#a55249;fill-opacity:1;stroke:#000000;stroke-width:1;stroke-miterlimit:4;stroke-opacity:1;stroke-dasharray:none" />
    <text
       transform="rotate(-90)"
       xml:space="preserve"
       style="font-style:normal;font-variant:normal;font-weight:normal;font-stretch:normal;line-height:0%;font-family:'Times New Roman';-inkscape-font-specification:'Times New Roman';letter-spacing:0px;word-spacing:0px;fill:#000000;fill-opacity:1;stroke:none"
       x="-925.18958"
       y="27.253191"
       id="text3176"><tspan
         id="tspan3178"
         sodipodi:role="line"
         x="-925.18958"
         y="27.253191"
         style="font-style:normal;font-variant:normal;font-weight:bold;font-stretch:normal;font-size:15px;line-height:125%;font-family:Arial;-inkscape-font-specification:'Arial Bold';text-align:start;writing-mode:lr-tb;text-anchor:start">FMI master algorithm</tspan></text>
    <path
       style="fill:none;stroke:#000000;stroke-width:0.99999994;stroke-linecap:butt;stroke-linejoin:round;stroke-miterlimit:4;stroke-opacity:1;stroke-dasharray:none;marker-end:url(#marker7498)"
       d="m 91.673613,832.07336 0,-41.23944 21.075217,0"
       id="path3182"
       inkscape:connector-curvature="0" />
    <path
       inkscape:connector-curvature="0"
       id="path3184"
       d="m 165.4654,790.83392 23.20822,0 0,40.10569"
       style="fill:none;stroke:#000000;stroke-width:0.99999982;stroke-linecap:butt;stroke-linejoin:round;stroke-miterlimit:4;stroke-opacity:1;stroke-dasharray:none;marker-end:url(#marker7498)" />
    <path
       inkscape:connector-curvature="0"
       id="path3186"
       d="m 114.17471,907.66314 -22.501097,0 0,-40.05258"
       style="fill:none;stroke:#000000;stroke-width:0.99999994;stroke-linecap:butt;stroke-linejoin:round;stroke-miterlimit:4;stroke-opacity:1;stroke-dasharray:none;marker-end:url(#marker7498)" />
    <path
       style="fill:none;stroke:#000000;stroke-width:0.99999988;stroke-linecap:butt;stroke-linejoin:round;stroke-miterlimit:4;stroke-opacity:1;stroke-dasharray:none;marker-end:url(#marker7498)"
       d="m 188.67362,866.07014 0,41.59298 -21.02811,0"
       id="path3188"
       inkscape:connector-curvature="0" />
    <path
       inkscape:connector-curvature="0"
       style="fill:#d2a49a;fill-opacity:1;stroke:#000000;stroke-width:1;stroke-miterlimit:4;stroke-opacity:1;stroke-dasharray:none"
       d="m 114.46875,891.11218 0,33.125 24.65625,0 0,27.25 c -5.30484,0.52336 -9.4375,4.99579 -9.4375,10.4375 0,0.22287 0.0177,0.43688 0.0312,0.65625 l 2,0 c -0.0169,-0.21877 -0.0312,-0.43306 -0.0312,-0.65625 0,-4.68382 3.78494,-8.46875 8.46875,-8.46875 4.68381,0 8.5,3.78493 8.5,8.46875 0,0.22319 -0.0455,0.43748 -0.0625,0.65625 l 2.03125,0 c 0.0137,-0.21937 0.0312,-0.43338 0.0312,-0.65625 0,-5.45174 -4.14985,-9.92779 -9.46875,-10.4375 l 0.0312,-27.25 24.65625,0 0,-33.125 -51.40625,0 z"
       id="path3192" />
    <rect
       rx="0"
       y="774.2749"
       x="114.47242"
       height="33.118088"
       width="51.402412"
       id="rect3200"
       style="fill:#d2a49a;fill-opacity:1;stroke:#000000;stroke-width:1;stroke-miterlimit:4;stroke-opacity:1;stroke-dasharray:none" />
    <rect
       style="fill:#d2a49a;fill-opacity:1;stroke:#000000;stroke-width:1;stroke-miterlimit:4;stroke-opacity:1;stroke-dasharray:none"
       id="rect3208"
       width="51.402412"
       height="33.118088"
       x="65.972412"
       y="832.68945"
       rx="0" />
    <rect
       rx="0"
       y="832.68945"
       x="162.97241"
       height="33.118088"
       width="51.402412"
       id="rect3216"
       style="fill:#d2a49a;fill-opacity:1;stroke:#000000;stroke-width:1;stroke-miterlimit:4;stroke-opacity:1;stroke-dasharray:none" />
    <text
       xml:space="preserve"
       style="font-style:normal;font-variant:normal;font-weight:normal;font-stretch:normal;line-height:0%;font-family:'Times New Roman';-inkscape-font-specification:'Times New Roman';letter-spacing:0px;word-spacing:0px;fill:#000000;fill-opacity:1;stroke:none"
       x="188.6658"
       y="854.87738"
       id="text3218"><tspan
         sodipodi:role="line"
         id="tspan3220"
         x="188.6658"
         y="854.87738"
         style="font-style:normal;font-variant:normal;font-weight:normal;font-stretch:normal;font-size:16px;line-height:125%;font-family:Arial;-inkscape-font-specification:Arial;text-align:center;writing-mode:lr-tb;text-anchor:middle">FMU</tspan></text>
    <rect
       ry="0"
       y="759.33557"
       x="408.7388"
       height="184.83705"
       width="235.59621"
       id="rect3238"
       style="fill:#b5b5b5;fill-opacity:1;stroke:none;stroke-width:1.94503" />
    <rect
       style="fill:#ffffff;fill-opacity:1;stroke:#000000;stroke-width:1;stroke-miterlimit:4;stroke-opacity:1;stroke-dasharray:none"
       id="rect3240"
       width="198.77531"
       height="182.15921"
       x="441.85977"
       y="758.17615"
       ry="0" />
    <rect
       ry="0"
       y="758.17615"
       x="406.71902"
       height="182.15921"
       width="36.140755"
       id="rect3244"
       style="fill:#e5ae7c;fill-opacity:1;stroke:#000000;stroke-width:1;stroke-miterlimit:4;stroke-opacity:1;stroke-dasharray:none" />
    <text
       transform="rotate(-90)"
       xml:space="preserve"
       style="font-style:normal;font-variant:normal;font-weight:normal;font-stretch:normal;line-height:0%;font-family:'Times New Roman';-inkscape-font-specification:'Times New Roman';letter-spacing:0px;word-spacing:0px;fill:#000000;fill-opacity:1;stroke:none"
       x="-933.19495"
       y="429.71811"
       id="text3246"><tspan
         id="tspan3248"
         sodipodi:role="line"
         x="-933.19495"
         y="429.71811"
         style="font-style:normal;font-variant:normal;font-weight:bold;font-stretch:normal;font-size:15px;line-height:125%;font-family:Arial;-inkscape-font-specification:'Arial Bold';text-align:start;writing-mode:lr-tb;text-anchor:start">external simulation tool</tspan></text>
    <path
       style="fill:none;stroke:#000000;stroke-width:0.99999994;stroke-linecap:butt;stroke-linejoin:round;stroke-miterlimit:4;stroke-opacity:1;stroke-dasharray:none;marker-end:url(#Arrow2Mend)"
       d="m 568.83218,790.9264 20.90272,0 0,42.40065"
       id="path3252"
       inkscape:connector-curvature="0" />
    <path
       style="fill:none;stroke:#000000;stroke-width:1;stroke-linecap:butt;stroke-linejoin:round;stroke-miterlimit:4;stroke-opacity:1;stroke-dasharray:none;marker-end:url(#Arrow2Mend)"
       d="m 490.82348,816.25594 0,-25.32954 24.52993,0"
       id="path3254"
       inkscape:connector-curvature="0" />
    <rect
       rx="0"
       y="816.37207"
       x="467.0433"
       height="33.118088"
       width="51.402412"
       id="rect3256"
       style="fill:#f3d6bc;fill-opacity:1;stroke:#000000;stroke-width:1;stroke-miterlimit:4;stroke-opacity:1;stroke-dasharray:none" />
    <path
       style="fill:none;stroke:#000000;stroke-width:0.99999994;stroke-linecap:butt;stroke-linejoin:round;stroke-miterlimit:4;stroke-opacity:1;stroke-dasharray:none;marker-end:url(#Arrow2Mend)"
       d="m 543.01177,807.37052 0,25.56197 -22.73702,0"
       id="path3258"
       inkscape:connector-curvature="0" />
    <path
       style="fill:none;stroke:#000000;stroke-width:1;stroke-linecap:butt;stroke-linejoin:miter;stroke-miterlimit:4;stroke-opacity:1;stroke-dasharray:none;marker-end:url(#Arrow2Mend)"
       d="m 589.73491,868.26261 0,21.01709"
       id="path3260"
       inkscape:connector-curvature="0"
       sodipodi:nodetypes="cc" />
    <rect
       rx="0"
       y="774.2749"
       x="517.3136"
       height="33.118088"
       width="51.402412"
       id="rect3262"
       style="fill:#f3d6bc;fill-opacity:1;stroke:#000000;stroke-width:1;stroke-miterlimit:4;stroke-opacity:1;stroke-dasharray:none" />
    <path
       inkscape:connector-curvature="0"
       style="fill:#f3d6bc;fill-opacity:1;stroke:#000000;stroke-width:1;stroke-linecap:butt;stroke-linejoin:miter;stroke-miterlimit:4;stroke-opacity:1;stroke-dasharray:none;stroke-dashoffset:0"
       d="m 467.03125,891.11218 0,33.125 73.15625,0 0,27.25 c -5.30484,0.52336 -9.4375,4.99579 -9.4375,10.4375 0,0.22287 0.0177,0.43688 0.0312,0.65625 l 2,0 c -0.0169,-0.21877 -0.0312,-0.43306 -0.0312,-0.65625 0,-4.68382 3.78494,-8.46875 8.46875,-8.46875 4.68381,0 8.5,3.78493 8.5,8.46875 0,0.22319 -0.0455,0.43748 -0.0625,0.65625 l 2.03125,0 c 0.0137,-0.21937 0.0312,-0.43338 0.0312,-0.65625 0,-5.45174 -4.14986,-9.92779 -9.46875,-10.4375 l 0.0312,-27.25 73.15625,0 0,-33.125 -148.40625,0 z"
       id="path3266" />
    <text
       xml:space="preserve"
       style="font-style:normal;font-variant:normal;font-weight:normal;font-stretch:normal;line-height:0%;font-family:'Times New Roman';-inkscape-font-specification:'Times New Roman';letter-spacing:0px;word-spacing:0px;fill:#000000;fill-opacity:1;stroke:none"
       x="540.47644"
       y="913.3075"
       id="text3268"><tspan
         sodipodi:role="line"
         x="540.47644"
         y="913.3075"
         style="font-style:normal;font-variant:normal;font-weight:normal;font-stretch:normal;font-size:16px;line-height:125%;font-family:Arial;-inkscape-font-specification:Arial;text-align:center;writing-mode:lr-tb;text-anchor:middle"
         id="tspan3579">FMI adapter</tspan></text>
    <path
       sodipodi:nodetypes="cc"
       inkscape:connector-curvature="0"
       id="path3272"
       d="m 490.82348,891.05922 0,-39.74472"
       style="fill:none;stroke:#000000;stroke-width:1;stroke-linecap:butt;stroke-linejoin:miter;stroke-miterlimit:4;stroke-opacity:1;stroke-dasharray:none;marker-end:url(#Arrow2Mend)" />
    <rect
       style="fill:#f3d6bc;fill-opacity:1;stroke:#000000;stroke-width:1;stroke-miterlimit:4;stroke-opacity:1;stroke-dasharray:none"
       id="rect3274"
       width="51.402412"
       height="33.118088"
       x="564.04327"
       y="835.11511"
       rx="0" />
    <path
       sodipodi:nodetypes="ssccssssssssccss"
       inkscape:connector-curvature="0"
       id="path3506"
       d="m 140.1506,957.02337 c -2.99977,0 -5.40625,2.43773 -5.40625,5.4375 0,2.64507 1.87135,4.82839 4.375,5.3125 l 0,15.59375 -42.437503,0 c -4.5985,0 -8.3125,4.0276 -8.3125,9.0312 l 0,26.87498 c 0,5.0037 3.714,9.0313 8.3125,9.0313 l 86.968753,0 c 4.5985,0 8.3125,-4.0276 8.3125,-9.0313 l 0,-26.87498 c 0,-5.0036 -3.714,-9.0312 -8.3125,-9.0312 l -42.46875,0 0,-15.59375 c 2.50523,-0.48285 4.40625,-2.66631 4.40625,-5.3125 0,-2.99977 -2.43773,-5.4375 -5.4375,-5.4375 z"
       style="fill:#98a369;fill-opacity:1;stroke:#000000;stroke-width:1;stroke-miterlimit:4;stroke-opacity:1;stroke-dasharray:none" />
    <text
       xml:space="preserve"
       style="font-style:normal;font-variant:normal;font-weight:normal;font-stretch:normal;line-height:0%;font-family:'Times New Roman';-inkscape-font-specification:'Times New Roman';letter-spacing:0px;word-spacing:0px;fill:#000000;fill-opacity:1;stroke:none"
       x="140.09665"
       y="1010.772"
       id="text3158"><tspan
         sodipodi:role="line"
         id="tspan3160"
         style="font-style:normal;font-variant:normal;font-weight:normal;font-stretch:normal;font-size:15px;line-height:125%;font-family:Arial;-inkscape-font-specification:Arial;text-align:center;writing-mode:lr-tb;text-anchor:middle"
         x="140.09665"
         y="1010.772">front-end</tspan><tspan
         sodipodi:role="line"
         id="tspan3162"
         style="font-style:normal;font-variant:normal;font-weight:normal;font-stretch:normal;font-size:15px;line-height:125%;font-family:Arial;-inkscape-font-specification:Arial;text-align:start;writing-mode:lr-tb;text-anchor:start"
         x="140.09665"
         y="1029.522"> </tspan></text>
    <path
       style="fill:#98a369;fill-opacity:1;stroke:#000000;stroke-width:1;stroke-miterlimit:4;stroke-opacity:1;stroke-dasharray:none"
       d="m 541.23578,957.02337 c -2.99977,0 -5.40625,2.43773 -5.40625,5.4375 0,2.64507 1.87135,4.82839 4.375,5.3125 l 0,15.59375 -42.4375,0 c -4.5985,0 -8.3125,4.0276 -8.3125,9.0312 l 0,26.87498 c 0,5.0037 3.714,9.0313 8.3125,9.0313 l 86.96875,0 c 4.5985,0 8.3125,-4.0276 8.3125,-9.0313 l 0,-26.87498 c 0,-5.0036 -3.714,-9.0312 -8.3125,-9.0312 l -42.46875,0 0,-15.59375 c 2.50523,-0.48285 4.40625,-2.66631 4.40625,-5.3125 0,-2.99977 -2.43773,-5.4375 -5.4375,-5.4375 z"
       id="path3226-1"
       inkscape:connector-curvature="0"
       sodipodi:nodetypes="ssccssssssssccss" />
    <text
       id="text3228"
       y="1010.772"
       x="541.18182"
       style="font-style:normal;font-variant:normal;font-weight:normal;font-stretch:normal;line-height:0%;font-family:'Times New Roman';-inkscape-font-specification:'Times New Roman';letter-spacing:0px;word-spacing:0px;fill:#000000;fill-opacity:1;stroke:none"
       xml:space="preserve"><tspan
         y="1010.772"
         x="541.18182"
         style="font-style:normal;font-variant:normal;font-weight:normal;font-stretch:normal;font-size:15px;line-height:125%;font-family:Arial;-inkscape-font-specification:Arial;text-align:center;writing-mode:lr-tb;text-anchor:middle"
         id="tspan3230"
         sodipodi:role="line">back-end</tspan><tspan
         y="1029.522"
         x="541.18182"
         style="font-style:normal;font-variant:normal;font-weight:normal;font-stretch:normal;font-size:15px;line-height:125%;font-family:Arial;-inkscape-font-specification:Arial;text-align:start;writing-mode:lr-tb;text-anchor:start"
         id="tspan3232"
         sodipodi:role="line"> </tspan></text>
    <path
       inkscape:connector-curvature="0"
       id="path5413"
       d="m 328.78778,972.92085 c -9.21654,0 -16.81628,5.94906 -17.96701,13.65522 -0.73958,-0.0899 -1.49827,-0.14936 -2.26457,-0.14936 -9.43133,0 -17.06972,7.03788 -17.06972,15.70349 0,5.3277 2.89034,10.0321 7.30644,12.8658 -0.57203,1.6898 -0.87592,3.4926 -0.87592,5.3554 0,9.9348 8.778,17.9865 19.59066,17.9865 2.80976,0 5.4698,-0.5576 7.88326,-1.5362 3.32447,3.7279 8.38141,6.1235 14.03606,6.1235 5.82303,0 10.9758,-2.5442 14.29242,-6.4649 2.31379,1.5492 4.98225,2.4323 7.84053,2.4323 6.96024,0 12.87451,-5.2504 15.01879,-12.5457 7.69572,-2.0931 13.35241,-9.1238 13.35241,-17.4744 0,-9.08278 -6.69309,-16.5781 -15.4247,-17.87982 4.4e-4,-0.0433 0,-0.0846 0,-0.12802 0,-8.79895 -9.17614,-15.9382 -20.48794,-15.9382 -4.47277,0 -8.5952,1.11595 -11.96376,3.00841 -3.30696,-3.07796 -8.02365,-5.01402 -13.26695,-5.01402 z"
       style="fill:#98a369;fill-opacity:1;stroke:#000000;stroke-width:1;stroke-opacity:1" />
    <text
       inkscape:transform-center-y="33.941126"
       inkscape:transform-center-x="47.376154"
       xml:space="preserve"
       style="font-style:normal;font-variant:normal;font-weight:normal;font-stretch:normal;line-height:0%;font-family:'Times New Roman';-inkscape-font-specification:'Times New Roman';letter-spacing:0px;word-spacing:0px;fill:#000000;fill-opacity:1;stroke:none"
       x="340.15854"
       y="1001.4119"
       id="text5364-7"><tspan
         sodipodi:role="line"
         id="tspan5370-1"
         style="font-style:normal;font-variant:normal;font-weight:normal;font-stretch:normal;font-size:15px;line-height:125%;font-family:Arial;-inkscape-font-specification:Arial;text-align:center;writing-mode:lr-tb;text-anchor:middle"
         x="340.15854"
         y="1001.4119">data</tspan><tspan
         id="tspan5489"
         sodipodi:role="line"
         style="font-style:normal;font-variant:normal;font-weight:normal;font-stretch:normal;font-size:15px;line-height:125%;font-family:Arial;-inkscape-font-specification:Arial;text-align:center;writing-mode:lr-tb;text-anchor:middle"
         x="340.15854"
         y="1020.1619">manager</tspan><tspan
         sodipodi:role="line"
         id="tspan5372-2"
         style="font-style:normal;font-variant:normal;font-weight:normal;font-stretch:normal;font-size:15px;line-height:125%;font-family:Arial;-inkscape-font-specification:Arial;text-align:start;writing-mode:lr-tb;text-anchor:start"
         x="340.15854"
         y="1038.9119"> </tspan></text>
    <path
       style="fill:#98a369;fill-opacity:1;stroke:none"
       d="m 423.05206,994.55482 -14.20011,5.1056 -0.0703,0 0,0.025 -16.87142,6.06598 16.87142,6.0786 0,0.038 0.10539,0 14.16497,5.0929 0,-5.0929 31.8448,0 0,5.0929 31.14183,-11.1968 -31.14177,-11.20938 0,5.1056 -31.84481,0 0,-5.1056 z"
       id="rect4550"
       inkscape:connector-curvature="0" />
    <path
       inkscape:connector-curvature="0"
       id="path4564"
       d="m 226.52081,994.55482 -14.20011,5.1056 -0.0703,0 0,0.025 -16.87142,6.06598 16.87142,6.0786 0,0.038 0.10539,0 14.16497,5.0929 0,-5.0929 31.8448,0 0,5.0929 31.14183,-11.1968 -31.14177,-11.20938 0,5.1056 -31.84481,0 0,-5.1056 z"
       style="fill:#98a369;fill-opacity:1;stroke:none" />
    <text
       id="text3563"
       y="796.46283"
       x="140.16582"
       style="font-style:normal;font-variant:normal;font-weight:normal;font-stretch:normal;line-height:0%;font-family:'Times New Roman';-inkscape-font-specification:'Times New Roman';letter-spacing:0px;word-spacing:0px;fill:#000000;fill-opacity:1;stroke:none"
       xml:space="preserve"><tspan
         style="font-style:normal;font-variant:normal;font-weight:normal;font-stretch:normal;font-size:16px;line-height:125%;font-family:Arial;-inkscape-font-specification:Arial;text-align:center;writing-mode:lr-tb;text-anchor:middle"
         y="796.46283"
         x="140.16582"
         id="tspan3565"
         sodipodi:role="line">FMU</tspan></text>
    <text
       xml:space="preserve"
       style="font-style:normal;font-variant:normal;font-weight:normal;font-stretch:normal;line-height:0%;font-family:'Times New Roman';-inkscape-font-specification:'Times New Roman';letter-spacing:0px;word-spacing:0px;fill:#000000;fill-opacity:1;stroke:none"
       x="91.665802"
       y="854.87738"
       id="text3567"><tspan
         sodipodi:role="line"
         id="tspan3569"
         x="91.665802"
         y="854.87738"
         style="font-style:normal;font-variant:normal;font-weight:normal;font-stretch:normal;font-size:16px;line-height:125%;font-family:Arial;-inkscape-font-specification:Arial;text-align:center;writing-mode:lr-tb;text-anchor:middle">FMU</tspan></text>
    <text
       id="text3571"
       y="913.30359"
       x="140.16396"
       style="font-style:normal;font-variant:normal;font-weight:normal;font-stretch:normal;line-height:0%;font-family:'Times New Roman';-inkscape-font-specification:'Times New Roman';letter-spacing:0px;word-spacing:0px;fill:#000000;fill-opacity:1;stroke:none"
       xml:space="preserve"><tspan
         style="font-style:normal;font-variant:normal;font-weight:normal;font-stretch:normal;font-size:16px;line-height:125%;font-family:Arial;-inkscape-font-specification:Arial;text-align:center;writing-mode:lr-tb;text-anchor:middle"
         y="913.30359"
         x="140.16396"
         id="tspan3573"
         sodipodi:role="line">FMU</tspan></text>
  </g>
</svg>
